<svg width="296" height="255" viewBox="0 0 296 255" fill="none" xmlns="http://www.w3.org/2000/svg">
<rect y="24" width="48" height="231" fill="#1890FF"/>
<path d="M48.5 136C87.4361 136 119 110.928 119 80C119 49.0721 87.4361 24 48.5 24C29.7102 24 12.6373 29.8389 0 39.357V120.643C12.6373 130.161 29.7102 136 48.5 136Z" fill="#1890FF"/>
<path d="M156 182.5C156 136.384 111.452 99 56.5 99C35.5157 99 16.0487 104.451 0 113.759V251.241C2.10907 252.465 4.27717 253.621 6.5 254.707H106.5C136.103 240.24 156 213.32 156 182.5Z" fill="#1890FF"/>
<rect x="212" y="24" width="57" height="231" fill="#C4C4C4"/>
<path d="M119 110.129L261.497 153.866L231.699 24.2159L211.355 24.2159L119 110.129Z" fill="#C4C4C4"/>
<path d="M216 110H119C203 169 148 247 116 255H216V110Z" fill="#C4C4C4"/>
</svg>
