<svg width="132" height="132" viewBox="0 0 132 132" fill="none" xmlns="http://www.w3.org/2000/svg">
<path d="M132 66C132 102.451 102.451 132 66 132C29.5492 132 0 102.451 0 66C0 29.5492 29.5492 0 66 0C102.451 0 132 29.5492 132 66Z" fill="url(#paint0_linear_3_11)"/>
<g filter="url(#filter0_d_3_11)">
<path d="M36.976 79L31.72 61.144H35.536L38.992 74.608L42.88 61.144H47.128L51.016 74.608L54.472 61.144H58.288L53.032 79H49.108L45.004 64.96L40.9 79H36.976ZM69.1156 79.432C67.3636 79.432 65.8036 79.048 64.4356 78.28C63.0916 77.488 62.0356 76.396 61.2676 75.004C60.4996 73.612 60.1156 71.992 60.1156 70.144C60.1156 68.272 60.4876 66.628 61.2316 65.212C61.9996 63.796 63.0556 62.692 64.3996 61.9C65.7676 61.108 67.3516 60.712 69.1516 60.712C70.9036 60.712 72.4276 61.108 73.7236 61.9C75.0196 62.668 76.0276 63.7 76.7476 64.996C77.4676 66.292 77.8276 67.72 77.8276 69.28C77.8276 69.52 77.8156 69.784 77.7916 70.072C77.7916 70.336 77.7796 70.636 77.7556 70.972H63.8596C63.9796 72.7 64.5436 74.02 65.5516 74.932C66.5836 75.82 67.7716 76.264 69.1156 76.264C70.1956 76.264 71.0956 76.024 71.8156 75.544C72.5596 75.04 73.1116 74.368 73.4716 73.528H77.2876C76.8076 75.208 75.8476 76.612 74.4076 77.74C72.9916 78.868 71.2276 79.432 69.1156 79.432ZM69.1156 63.844C67.8436 63.844 66.7156 64.228 65.7316 64.996C64.7476 65.74 64.1476 66.868 63.9316 68.38H74.0116C73.9396 66.988 73.4476 65.884 72.5356 65.068C71.6236 64.252 70.4836 63.844 69.1156 63.844ZM91.831 79.432C90.439 79.432 89.203 79.156 88.123 78.604C87.067 78.052 86.227 77.272 85.603 76.264L85.207 79H81.787V53.08H85.603V63.916C86.179 63.076 86.971 62.332 87.979 61.684C88.987 61.036 90.283 60.712 91.867 60.712C93.595 60.712 95.119 61.12 96.439 61.936C97.759 62.752 98.791 63.868 99.535 65.284C100.303 66.7 100.687 68.308 100.687 70.108C100.687 71.908 100.303 73.516 99.535 74.932C98.791 76.324 97.759 77.428 96.439 78.244C95.119 79.036 93.583 79.432 91.831 79.432ZM91.183 76.12C92.815 76.12 94.159 75.568 95.215 74.464C96.271 73.336 96.799 71.872 96.799 70.072C96.799 68.896 96.559 67.852 96.079 66.94C95.599 66.028 94.939 65.32 94.099 64.816C93.259 64.288 92.287 64.024 91.183 64.024C89.551 64.024 88.207 64.588 87.151 65.716C86.119 66.844 85.603 68.296 85.603 70.072C85.603 71.872 86.119 73.336 87.151 74.464C88.207 75.568 89.551 76.12 91.183 76.12Z" fill="black"/>
</g>
<defs>
<filter id="filter0_d_3_11" x="27.72" y="53.08" width="76.967" height="34.352" filterUnits="userSpaceOnUse" color-interpolation-filters="sRGB">
<feFlood flood-opacity="0" result="BackgroundImageFix"/>
<feColorMatrix in="SourceAlpha" type="matrix" values="0 0 0 0 0 0 0 0 0 0 0 0 0 0 0 0 0 0 127 0" result="hardAlpha"/>
<feOffset dy="4"/>
<feGaussianBlur stdDeviation="2"/>
<feComposite in2="hardAlpha" operator="out"/>
<feColorMatrix type="matrix" values="0 0 0 0 0 0 0 0 0 0 0 0 0 0 0 0 0 0 0.25 0"/>
<feBlend mode="normal" in2="BackgroundImageFix" result="effect1_dropShadow_3_11"/>
<feBlend mode="normal" in="SourceGraphic" in2="effect1_dropShadow_3_11" result="shape"/>
</filter>
<linearGradient id="paint0_linear_3_11" x1="132" y1="66" x2="3.54648e-06" y2="66" gradientUnits="userSpaceOnUse">
<stop stop-color="#F7797D"/>
<stop offset="0.505208" stop-color="#FBD786" stop-opacity="0.504202"/>
<stop offset="1" stop-color="#C6FFDD"/>
</linearGradient>
</defs>
</svg>
